# xmcd CD database file
#
# Track frame offsets:
#	150
#	1775
#	34204
#	67113
#	102157
#	136459
#	164563
#	171813
#	201869
#
# Disc length: 2754 seconds
#
# Revision: 0
# Processed by: cddbd v1.5PL3 Copyright (c) Steve Scherf et al.
# Submitted via: cdripper 1.0.7
#
DISCID=790ac009
DTITLE=Paul Rucker - History of an Apology
DYEAR=2003
DGENRE=Jazz
TTITLE0=I Never Saw My Parents Dance (Intro)
TTITLE1=Every Now and Then
TTITLE2=History of an Apology
TTITLE3=Parents Dance, Pt. 1
TTITLE4=All the Things I Didn't Want
TTITLE5=Sunday Morning Walk in Jasper Texas
TTITLE6=Lost Years
TTITLE7=Parents Dance, Pt. 2
TTITLE8=Data
EXTD=YEAR: 2003
EXTT0=
EXTT1=
EXTT2=
EXTT3=
EXTT4=
EXTT5=
EXTT6=
EXTT7=
EXTT8=
PLAYORDER=
